<?xml version="1.0" encoding="UTF-8"?>
<svg id="_レイヤー_1" data-name="レイヤー_1" xmlns="http://www.w3.org/2000/svg" version="1.1" viewBox="0 0 16 16">
  <!-- Generator: Adobe Illustrator 29.8.2, SVG Export Plug-In . SVG Version: 2.1.1 Build 3)  -->
  <defs>
    <style>
      .st0 {
        fill: #b8dae6;
      }
    </style>
  </defs>
  <path class="st0" d="M8,5.92c-1.15,0-2.08.94-2.08,2.08s.94,2.08,2.08,2.08,2.08-.94,2.08-2.08-.94-2.08-2.08-2.08ZM14.25,8c0-.86,0-1.72-.04-2.58-.05-1-.28-1.89-1.01-2.62-.73-.73-1.62-.96-2.62-1.01-.86-.05-1.72-.04-2.58-.04s-1.72,0-2.58.04c-1,.05-1.89.28-2.62,1.01-.73.73-.96,1.62-1.01,2.62-.05.86-.04,1.72-.04,2.58s0,1.72.04,2.58c.05,1,.28,1.89,1.01,2.62.73.73,1.62.96,2.62,1.01.86.05,1.72.04,2.58.04s1.72,0,2.58-.04c1-.05,1.89-.28,2.62-1.01.73-.73.96-1.62,1.01-2.62.05-.86.04-1.72.04-2.58ZM8,11.2c-1.77,0-3.2-1.43-3.2-3.2s1.43-3.2,3.2-3.2,3.2,1.43,3.2,3.2-1.43,3.2-3.2,3.2ZM11.34,5.41c-.41,0-.75-.33-.75-.75s.33-.75.75-.75.75.33.75.75c0,.1-.02.2-.06.29-.04.09-.09.17-.16.24-.07.07-.15.12-.24.16-.09.04-.19.06-.29.06Z"/>
</svg>