<?xml version="1.0" encoding="UTF-8"?>
<svg id="_x31_0" xmlns="http://www.w3.org/2000/svg" version="1.1" viewBox="0 0 512 512">
  <!-- Generator: Adobe Illustrator 29.8.2, SVG Export Plug-In . SVG Version: 2.1.1 Build 3)  -->
  <defs>
    <style>
      .st0 {
        fill: #333;
      }
    </style>
  </defs>
  <path class="st0" d="M488.74,367.91l-45.88-35.77c-23.25-18.13-56.16-16.76-77.95,3.11-8.87,8.09-16.88,16.03-21.12,21.58-.36.47-.79.85-1.27,1.16-.05.03-.09.07-.14.11-16.29,10.13-95.62-61.02-111.25-77.29-16.81-16.14-92.19-100.29-76.02-112.66,5.55-4.25,13.49-12.25,21.58-21.12,19.86-21.79,21.23-54.69,3.11-77.94l-35.77-45.88c-2.81-3.6-6.06-6.69-9.5-9.5-.16-.14-.32-.27-.49-.41-1.65-1.32-3.34-2.55-5.1-3.68-.21-.14-.44-.26-.65-.4-7.56-4.71-16.02-7.67-24.85-8.71-.06,0-.12-.02-.17-.02-7.13-.82-14.44-.52-21.66,1.3C62.8,6.54-1.41,50.28.02,82.36c.41,9.24,6.5,26.62,15.93,48.44,21.26,49.19,48.04,95.34,79.42,137.86,41.65,56.58,91.52,106.43,148.11,148.06,42.46,31.31,88.54,58.04,137.66,79.27,21.82,9.43,39.2,15.52,48.44,15.93,32.08,1.44,75.82-62.77,80.57-81.59,5.87-23.21-2.54-47.71-21.42-62.43h0Z"/>
</svg>